HIERARCHY
ROOT Hips
{
	OFFSET 0.00 0.00 0.00
	CHANNELS 6 Xposition Yposition Zposition Yrotation Xrotation Zrotation
	JOINT LHipJoint
	{
		OFFSET	0.0000	0.0000	0.0000
		CHANNELS 3 Yrotation Xrotation Zrotation
		JOINT LeftUpLeg
		{
			OFFSET	1.0138	-0.0809	-0.0827
			CHANNELS 3 Yrotation Xrotation Zrotation
			JOINT LeftLeg
			{
				OFFSET	0.4110	-3.9095	0.3245
				CHANNELS 3 Yrotation Xrotation Zrotation
				JOINT LeftFoot
				{
					OFFSET	0.3810	-4.0555	-0.1470
					CHANNELS 3 Yrotation Xrotation Zrotation
					JOINT LeftToeBase
					{
						OFFSET	0.1396	-0.4462	1.3079
						CHANNELS 3 Yrotation Xrotation Zrotation
						End Site
						{
							OFFSET 0.0161 -0.0248 0.1809
						}
					}
				}
			}
		}
	}
	JOINT LowerBack
	{
		OFFSET	0.0000	0.7977	-0.3873
		CHANNELS 3 Yrotation Xrotation Zrotation
		JOINT Spine
		{
			OFFSET	0.0000	1.4131	0.1715
			CHANNELS 3 Yrotation Xrotation Zrotation
			JOINT Spine1
			{
				OFFSET	0.0000	1.4392	-0.1032
				CHANNELS 3 Yrotation Xrotation Zrotation
				JOINT LeftShoulder
				{
					OFFSET	0.2274	1.0382	0.4032
					CHANNELS 3 Yrotation Xrotation Zrotation
					JOINT LeftArm
					{
						OFFSET	1.4730	-0.2267	-0.0231
						CHANNELS 3 Yrotation Xrotation Zrotation
						JOINT LeftForeArm
						{
							OFFSET	1.6131	-1.8059	0.0081
							CHANNELS 3 Yrotation Xrotation Zrotation
							JOINT LeftHand
							{
								OFFSET	1.2197	-1.2423	1.6317
								CHANNELS 3 Yrotation Xrotation Zrotation
								JOINT LThumb
								{
									OFFSET	0.0109	-0.0753	0.4387
									CHANNELS 3 Yrotation Xrotation Zrotation
									End Site
									{
										OFFSET -0.2090 -0.0868 0.2097
									}
								}
								JOINT LeftFingerBase
								{
									OFFSET	0.1071	-0.1567	0.2607
									CHANNELS 3 Yrotation Xrotation Zrotation
									JOINT LeftHandFinger1
									{
										OFFSET	0.1706	-0.2492	0.6830
										CHANNELS 3 Yrotation Xrotation Zrotation
										End Site
										{
											OFFSET 0.0335 -0.1507 0.2071
										}
									}
								}
							}
						}
					}
				}
				JOINT Neck
				{
					OFFSET	0.0000	1.7498	0.2381
					CHANNELS 3 Yrotation Xrotation Zrotation
					JOINT Neck1
					{
						OFFSET	0.0000	0.5043	0.1959
						CHANNELS 3 Yrotation Xrotation Zrotation
						JOINT Head
						{
							OFFSET	0.0000	0.5044	0.1959
							CHANNELS 3 Yrotation Xrotation Zrotation
							End Site
							{
								OFFSET 0.0000 1.4798 -0.0693
							}
						}
					}
				}
				JOINT RightShoulder
				{
					OFFSET	-0.2274	1.0382	0.4032
					CHANNELS 3 Yrotation Xrotation Zrotation
					JOINT RightArm
					{
						OFFSET	-1.4730	-0.2267	-0.0231
						CHANNELS 3 Yrotation Xrotation Zrotation
						JOINT RightForeArm
						{
							OFFSET	-1.6131	-1.8059	0.0081
							CHANNELS 3 Yrotation Xrotation Zrotation
							JOINT RightHand
							{
								OFFSET	-1.2197	-1.2423	1.6317
								CHANNELS 3 Yrotation Xrotation Zrotation
								JOINT RThumb
								{
									OFFSET	-0.0109	-0.0753	0.4387
									CHANNELS 3 Yrotation Xrotation Zrotation
									End Site
									{
										OFFSET 0.2090 -0.0868 0.2097
									}
								}
								JOINT RightFingerBase
								{
									OFFSET	-0.1071	-0.1567	0.2607
									CHANNELS 3 Yrotation Xrotation Zrotation
									JOINT RightHandFinger1
									{
										OFFSET	-0.1706	-0.2492	0.6830
										CHANNELS 3 Yrotation Xrotation Zrotation
										End Site
										{
											OFFSET -0.0335 -0.1507 0.2071
										}
									}
								}
							}
						}
					}
				}
			}
		}
	}
	JOINT RHipJoint
	{
		OFFSET	0.0000	0.0000	0.0000
		CHANNELS 3 Yrotation Xrotation Zrotation
		JOINT RightUpLeg
		{
			OFFSET	-1.0138	-0.0809	-0.0827
			CHANNELS 3 Yrotation Xrotation Zrotation
			JOINT RightLeg
			{
				OFFSET	-0.4110	-3.9095	0.3245
				CHANNELS 3 Yrotation Xrotation Zrotation
				JOINT RightFoot
				{
					OFFSET	-0.3810	-4.0555	-0.1470
					CHANNELS 3 Yrotation Xrotation Zrotation
					JOINT RightToeBase
					{
						OFFSET	-0.1396	-0.4462	1.3079
						CHANNELS 3 Yrotation Xrotation Zrotation
						End Site
						{
							OFFSET -0.0161 -0.0248 0.1809
						}
					}
				}
			}
		}
	}
}
MOTION
Frames: 14
Frame Time: 0.0333333
0.0063 8.5299 0.0181 -80.8130 0.2638 -4.0545 0.0000 -0.0000 0.0000 3.1681 -8.8589 -3.8847 26.3643 55.6741 26.4842 8.9776 6.3396 3.9766 -0.0000 -0.5896 -0.0000 0.0000 -0.0000 0.0000 11.9849 1.8857 -0.1329 24.0428 3.7551 0.1383 -3.8161 3.5048 1.6239 -32.5331 -7.4846 -18.8469 12.6134 14.8790 -0.4492 -1.6298 -19.3191 35.8181 13.6045 1.8101 17.4764 7.6975 9.8832 1.4318 3.4578 -14.8172 4.8283 5.8757 3.8827 0.9332 5.9101 3.8397 1.1718 34.1288 -12.0576 -9.2912 19.3630 0.8772 8.0963 -11.5527 5.4651 25.7579 -30.7367 30.7966 -6.3860 2.4056 35.5063 -15.2963 -22.2143 2.0462 -21.5765 10.2646 26.3395 15.6738 4.3376 -5.1115 1.1917 0.0000 -0.0000 0.0000 -4.7294 -10.0814 15.2039 -9.7424 16.8337 -3.9699 0.3311 -8.2759 -9.1386 -0.0000 -3.0786 0.0000 
0.0564 8.5993 0.0364 -81.1489 0.2285 -3.4653 0.0000 -0.0000 0.0000 0.6150 -15.1704 -6.5077 23.7018 52.6395 23.6776 13.7123 -0.0458 5.4021 -0.0000 -0.3200 0.0000 0.0000 -0.0000 0.0000 12.4376 2.0127 -0.2042 24.9582 4.1859 -0.4533 -4.2923 3.4957 0.8833 -26.0042 -7.8810 -21.8085 16.8583 19.1043 0.7128 -6.1476 -12.2209 40.6904 17.0100 2.8231 18.9596 9.3520 8.5500 2.9236 2.9932 -14.1885 4.4858 5.5725 4.4070 0.9648 5.6159 4.3590 1.1998 33.5166 -12.6272 -9.5150 19.8953 0.7810 8.1773 -5.5761 0.9495 24.1455 -29.4957 29.8922 -5.7781 6.8819 34.0549 -11.1639 -22.0286 1.9599 -21.3638 7.1519 24.1964 12.5627 4.1426 -5.3320 1.0351 0.0000 -0.0000 0.0000 -5.5831 -3.3395 14.5976 -6.6055 12.5634 -2.4090 0.3724 -10.0119 -9.7601 -0.0000 -3.3185 0.0000 
0.0832 8.6150 0.0679 -82.0362 0.3212 -2.7889 0.0000 -0.0000 0.0000 -0.8300 -20.1428 -8.5114 19.3761 45.6727 19.1569 17.1809 -3.4062 6.4808 0.0000 0.4886 -0.0000 0.0000 -0.0000 0.0000 13.0819 2.0751 -0.2822 26.1943 4.4237 -0.8259 -4.0612 3.5291 -0.2039 -19.2975 -6.7192 -23.6419 19.3785 21.4794 1.5414 -9.7876 -1.9702 44.7362 19.1225 3.4613 19.9764 9.6909 8.4649 3.2336 2.2911 -13.2502 3.9637 5.2836 4.6849 0.8303 5.3285 4.6362 1.0778 33.0306 -13.0443 -9.8658 20.9339 0.6228 7.9705 0.6361 -2.1410 21.3727 -27.2722 28.2020 -4.7334 11.1439 31.6981 -5.6738 -21.7707 1.8376 -21.0675 4.1149 21.8813 9.5384 3.9238 -5.5810 0.8595 0.0000 -0.0000 0.0000 -6.9446 3.2738 13.2741 -2.3600 8.5317 -0.5762 0.3157 -11.7852 -10.4003 -0.0000 -3.1523 0.0000 
0.0846 8.5673 0.1040 -83.6141 0.5923 -2.3068 0.0000 -0.0000 0.0000 -1.0507 -24.2406 -9.6434 14.9206 36.2300 14.2756 18.1832 -5.0953 6.7131 0.0000 1.0464 -0.0000 0.0000 -0.0000 0.0000 13.8332 2.0166 -0.2743 27.6175 4.3571 -0.8972 -2.8655 3.6489 -1.5059 -14.6386 -3.3065 -24.3693 19.7421 21.8133 1.6690 -11.5103 8.5354 46.9456 19.5292 3.7916 20.3679 8.7508 9.6151 2.4041 1.5207 -12.2372 3.3850 5.0831 4.6250 0.5994 5.1215 4.5770 0.8806 32.8781 -13.2248 -10.3098 22.4560 0.4172 7.4974 7.2443 -3.5251 17.4122 -24.2341 25.7472 -3.4046 13.7370 28.6452 -0.7134 -21.4753 1.6957 -20.7282 2.6254 20.6282 8.0660 3.6991 -5.8381 0.6796 0.0000 -0.0000 0.0000 -8.8425 9.4764 11.3449 2.1639 5.1400 1.2179 0.8688 -14.0475 -11.0131 0.0000 -2.7652 -0.0000 
0.0648 8.4580 0.1399 -85.5947 1.0171 -2.1050 0.0000 -0.0000 0.0000 -0.3092 -28.2316 -10.0609 11.0979 26.8390 9.9836 16.5210 -7.1993 4.9044 -0.0000 0.8695 0.0000 0.0000 -0.0000 0.0000 14.5768 1.8287 -0.2153 29.0206 3.9654 -0.7471 -0.8596 3.8828 -2.6424 -12.8822 2.1635 -24.7766 18.5410 20.7018 1.2550 -11.0671 16.4165 46.5182 18.7950 3.9424 20.2766 6.9747 11.4786 0.8157 0.8061 -11.3131 2.8428 4.9836 4.3106 0.3524 5.0094 4.2632 0.6838 32.9895 -13.1637 -10.6572 24.1441 0.2262 6.8672 13.5895 -3.3924 12.5767 -20.8582 22.8240 -2.0732 14.0536 25.1455 2.2049 -21.1394 1.5322 -20.3423 2.6900 20.6432 8.1603 3.4208 -6.1586 0.4573 0.0000 -0.0000 0.0000 -11.1448 14.3657 8.9850 5.5066 3.9628 2.7340 2.5370 -16.7877 -11.5527 -0.0000 -3.2621 -0.0000 
0.0330 8.3146 0.1735 -87.4733 1.4556 -2.0916 0.0000 -0.0000 0.0000 0.9378 -32.1395 -10.2533 8.2325 19.8277 6.8286 13.0578 -10.0938 1.4049 -0.0000 -0.0642 -0.0000 0.0000 -0.0000 0.0000 15.2221 1.5802 -0.1639 30.2388 3.4215 -0.5618 1.4614 4.1694 -3.2135 -13.2623 8.6529 -25.6618 16.8148 19.0624 0.6993 -8.8707 19.9391 43.1167 17.9097 3.9895 20.0155 5.0435 13.3885 -0.9465 0.1487 -10.4763 2.3397 4.9368 3.8917 0.1883 4.9485 3.8433 0.5708 33.1443 -12.8780 -10.7302 25.5428 0.0920 6.3179 18.6144 -2.4857 7.5244 -17.6569 19.8683 -0.9645 13.1460 21.6125 2.8911 -20.7637 1.3461 -19.9105 3.5270 21.2749 9.0337 3.0835 -6.5502 0.1887 0.0000 -0.0000 0.0000 -13.3222 18.4993 6.6460 6.9820 3.9049 3.4826 4.9509 -19.0830 -11.8278 0.0000 -6.1740 -0.0000 
0.0001 8.1727 0.2060 -88.8333 1.7096 -1.9435 0.0000 -0.0000 0.0000 2.2407 -35.2944 -10.9539 6.5817 16.7169 5.1087 9.2580 -12.1182 -0.9360 0.0000 -1.6557 -0.0000 0.0000 -0.0000 0.0000 15.7171 1.4131 -0.2188 31.1695 3.0611 -0.5759 3.4958 4.3839 -3.1234 -14.1461 14.7217 -27.0596 15.3347 17.6186 0.2610 -5.7366 19.4870 37.0573 17.5904 3.9695 19.8815 3.6512 14.8040 -2.2621 -0.4895 -9.6762 1.8474 4.8863 3.4911 0.1896 4.8888 3.4392 0.6038 33.1880 -12.4256 -10.5198 26.2979 0.0158 6.0560 21.5722 -1.8707 3.0978 -14.9078 17.1960 -0.1413 12.7299 18.4196 1.8333 -20.3661 1.1450 -19.4528 4.4068 21.8659 9.9400 2.7314 -6.9627 -0.0909 0.0000 -0.0000 0.0000 -14.8673 22.1824 4.7231 7.0461 4.4819 2.8649 6.7662 -19.8124 -11.0744 -0.0000 -11.9694 0.0000 
-0.0280 8.0611 0.2424 -89.4952 1.6361 -1.2849 0.0000 -0.0000 0.0000 3.1655 -36.6990 -12.4804 6.1391 17.1787 4.5610 6.6256 -11.1741 0.4746 0.0000 -3.6151 0.0000 0.0000 -0.0000 0.0000 16.0399 1.4588 -0.4612 31.7551 3.1945 -0.9716 4.7896 4.4660 -2.6711 -14.0300 19.4101 -28.2837 14.3459 16.6356 -0.0116 -2.4644 17.4887 29.2873 17.9964 3.9004 19.9830 3.1666 15.4704 -2.7755 -1.0667 -8.9632 1.3992 4.8131 3.1744 0.3452 4.8153 3.1157 0.7599 33.0985 -11.9500 -10.1697 26.2979 0.0051 6.0727 22.2914 -2.3552 0.2057 -12.5524 14.8164 0.4637 13.4686 15.3475 -0.8032 -19.9692 0.9402 -18.9955 5.1795 22.2638 10.7154 2.3998 -7.3546 -0.3533 0.0000 -0.0000 0.0000 -15.5225 25.7437 3.4325 6.5585 5.3453 0.7577 6.5510 -17.6193 -8.6798 0.0000 -18.6369 -0.0000 
-0.0402 7.9935 0.2893 -89.4951 1.2438 0.1279 0.0000 -0.0000 0.0000 3.4876 -36.0956 -14.9334 6.9026 19.7904 5.0140 5.7926 -7.2433 6.2630 -0.0000 -5.1829 -0.0000 0.0000 -0.0000 0.0000 16.1967 1.7799 -0.9829 31.9931 3.9027 -1.7531 5.1909 4.4575 -2.2895 -12.4894 22.3806 -28.6413 13.7565 16.0427 -0.1663 0.2695 17.0301 21.3668 18.8302 3.7789 20.1957 3.3551 15.5362 -2.6715 -1.4620 -8.4806 1.0906 4.7348 2.9603 0.5222 4.7445 2.8946 0.9108 32.9015 -11.6518 -9.8419 25.6651 0.0927 6.1337 20.9608 -4.0020 -0.3548 -10.3635 12.5385 0.9389 14.3277 11.4140 -5.3022 -19.5890 0.7402 -18.5570 6.1217 22.6877 11.6394 2.0833 -7.7317 -0.6029 0.0000 -0.0000 0.0000 -15.3954 28.0899 2.6706 5.7759 8.5464 -1.9565 4.4777 -11.9889 -6.5601 -0.6740 -33.8579 4.9822 
-0.0371 7.9884 0.3455 -88.9941 0.7070 2.0184 0.0000 -0.0000 0.0000 2.9772 -33.0375 -17.3096 8.1515 21.5041 5.6904 6.4566 -2.4211 11.1236 -0.0000 -5.4864 0.0000 0.0000 -0.0000 0.0000 16.1977 2.2786 -1.6342 31.9507 4.9797 -2.7161 4.8484 4.4159 -2.2059 -10.4001 23.3971 -28.0917 13.4696 15.7523 -0.2394 1.6432 19.9549 15.1536 19.5648 3.5803 20.2720 3.5022 15.5389 -2.5858 -1.5885 -8.3272 0.9916 4.6816 2.8466 0.5462 4.7010 2.7772 0.9005 32.6211 -11.6597 -9.6194 24.6696 0.2878 5.9645 17.9819 -6.0877 1.7230 -8.3212 10.3629 1.3042 13.8691 5.6711 -11.5731 -19.2380 0.5525 -18.1519 7.3229 23.2717 12.8254 1.7624 -8.1170 -0.8552 0.0000 -0.0000 0.0000 -14.6066 26.2484 1.8139 4.5467 17.7299 -3.8162 1.0112 -0.1371 -1.0956 -9.3770 -45.6528 62.9339 
-0.0266 8.0478 0.4023 -88.2713 0.2871 3.7881 0.0000 -0.0000 0.0000 1.9704 -28.9612 -18.9133 8.9346 22.4678 5.9913 7.2228 0.2801 11.5905 0.0001 -4.4071 0.0000 0.0000 -0.0000 0.0000 16.0658 2.7610 -2.1484 31.7212 6.0488 -3.5654 4.0905 4.3608 -2.3584 -9.1233 22.2286 -27.2432 13.5562 15.8401 -0.2175 0.8892 25.7547 11.8279 19.7506 3.2432 20.0095 2.9239 16.0800 -3.1525 -1.4801 -8.4587 1.0765 4.6834 2.8330 0.3343 4.7083 2.7658 0.6639 32.3399 -11.9053 -9.5129 23.6349 0.5371 5.4784 14.1013 -7.5419 5.9400 -6.8850 8.8083 1.5147 12.0916 -1.7909 -18.3882 -18.9338 0.3871 -17.8006 8.3077 23.7912 13.8217 1.4449 -8.5014 -1.1040 0.0000 -0.0000 0.0000 -13.3399 20.7390 1.1596 -0.5658 31.8165 -6.5766 -1.3239 7.3794 3.0352 0.0000 -13.8773 -0.0000 
-0.0042 8.1538 0.4463 -87.6897 0.1994 4.9715 0.0000 -0.0000 0.0000 1.1401 -24.7720 -19.9723 9.1305 22.7412 5.9220 7.1615 -1.0991 11.7355 0.0000 -2.8250 0.0000 0.0000 -0.0000 0.0000 15.8283 3.0641 -2.3876 31.3503 6.7567 -4.0875 3.2616 4.3008 -2.5879 -9.3991 18.9512 -26.7112 14.1569 16.4460 -0.0619 -2.0229 32.1252 11.3033 19.3442 2.6596 19.3667 1.4009 17.3516 -4.5949 -1.2604 -8.7261 1.2481 4.7693 2.9272 -0.0491 4.7930 2.8674 0.2722 32.2397 -12.1429 -9.5120 22.8317 0.7582 4.8464 10.3985 -7.6278 11.1479 -6.8356 8.7544 1.5213 10.1870 -9.4413 -23.9686 -18.6982 0.2573 -17.5281 8.3080 23.8192 13.8632 1.1702 -8.8364 -1.3186 0.0000 -0.0000 0.0000 -11.7892 13.3377 1.0920 -9.2844 44.5300 -12.4077 -2.8078 11.8789 4.1181 0.0000 -6.8709 -0.0000 
0.0452 8.2871 0.4701 -87.5628 0.5064 5.5492 0.0000 -0.0000 0.0000 0.5888 -19.8223 -20.3158 8.6643 20.6966 5.4390 6.5504 -4.2178 10.8866 0.0000 -1.7742 -0.0000 0.0000 -0.0000 0.0000 15.5252 3.1500 -2.4746 30.8264 6.9370 -4.2457 2.5849 4.2527 -2.8361 -10.9886 14.0680 -26.5950 15.2832 17.5678 0.2464 -6.1114 36.7701 13.0253 18.7418 1.7365 18.4640 -0.7960 19.0359 -6.6705 -1.0442 -8.9908 1.4168 4.9564 3.1283 -0.4645 4.9743 3.0784 -0.1387 32.4997 -12.1293 -9.6055 22.3743 0.8995 4.3362 7.7795 -6.3280 16.2361 -8.7255 10.7971 1.2380 8.9102 -15.2410 -27.1926 -18.5424 0.1706 -17.3478 6.9400 23.0619 12.5546 0.9743 -9.0767 -1.4712 0.0000 -0.0000 0.0000 -9.7584 4.6825 1.5174 -20.3779 53.1184 -21.0897 -4.0237 11.5787 3.0142 -0.0000 -2.5619 0.0000 
0.1200 8.4357 0.4743 -87.9929 1.1259 5.7766 0.0000 -0.0000 0.0000 0.2061 -13.5240 -20.2304 7.6609 15.3191 4.7402 5.9467 -5.5827 10.2897 0.0000 -1.6024 -0.0000 0.0000 -0.0000 0.0000 15.1778 3.0714 -2.6176 30.1355 6.6247 -4.1301 2.1255 4.2298 -3.1521 -13.2484 8.2912 -26.6226 16.7853 19.0340 0.6902 -9.9377 38.7491 16.9042 18.4395 0.4649 17.4739 -3.2063 20.6664 -8.9375 -0.8794 -9.1935 1.5450 5.2406 3.4169 -0.8053 5.2511 3.3767 -0.4695 33.1808 -11.7738 -9.7681 22.2176 0.9551 4.1147 6.5474 -4.0856 20.6774 -12.5928 14.8578 0.4541 8.3172 -18.0204 -27.9605 -18.4591 0.1240 -17.2514 4.4649 21.4923 10.1445 0.8636 -9.2131 -1.5573 0.0000 -0.0000 0.0000 -7.1017 -4.5412 1.9579 -29.3583 57.7716 -28.5076 -5.7820 5.8441 0.3285 0.0000 -2.1764 -0.0000 
